<svg width="60" height="60" viewBox="0 0 60 60" fill="none" xmlns="http://www.w3.org/2000/svg">
<path d="M48.75 35.625V13.125C48.747 10.6395 47.7583 8.25667 46.0008 6.49916C44.2433 4.74165 41.8605 3.75298 39.375 3.75H20.625C18.1395 3.75298 15.7567 4.74165 13.9992 6.49916C12.2417 8.25667 11.253 10.6395 11.25 13.125V35.625C11.2536 37.7694 11.9914 39.8479 13.3406 41.5147C14.6898 43.1815 16.569 44.336 18.6656 44.7863L13.4006 53.3981C13.2632 53.6083 13.1694 53.8439 13.1247 54.091C13.0801 54.3381 13.0855 54.5916 13.1408 54.8366C13.196 55.0815 13.2998 55.3129 13.4461 55.5169C13.5924 55.721 13.7783 55.8936 13.9925 56.0245C14.2068 56.1553 14.4452 56.2418 14.6936 56.2789C14.9419 56.3159 15.1952 56.3026 15.4383 56.2399C15.6814 56.1771 15.9095 56.0662 16.1089 55.9137C16.3084 55.7611 16.4752 55.5701 16.5994 55.3519L18.345 52.5H41.6569L43.4006 55.3519C43.5248 55.5701 43.6916 55.7611 43.8911 55.9137C44.0905 56.0662 44.3186 56.1771 44.5617 56.2399C44.8048 56.3026 45.0581 56.3159 45.3064 56.2789C45.5548 56.2418 45.7932 56.1553 46.0075 56.0245C46.2217 55.8936 46.4076 55.721 46.5539 55.5169C46.7002 55.3129 46.804 55.0815 46.8592 54.8366C46.9144 54.5916 46.9199 54.3381 46.8753 54.091C46.8306 53.8439 46.7368 53.6083 46.5994 53.3981L41.3344 44.7863C43.431 44.336 45.3102 43.1815 46.6594 41.5147C48.0086 39.8479 48.7464 37.7694 48.75 35.625ZM20.625 37.5C20.2542 37.5 19.8916 37.39 19.5833 37.184C19.275 36.978 19.0346 36.6851 18.8927 36.3425C18.7508 35.9999 18.7137 35.6229 18.786 35.2592C18.8584 34.8955 19.037 34.5614 19.2992 34.2992C19.5614 34.037 19.8955 33.8584 20.2592 33.786C20.6229 33.7137 20.9999 33.7508 21.3425 33.8927C21.6851 34.0346 21.978 34.275 22.184 34.5833C22.39 34.8916 22.5 35.2542 22.5 35.625C22.5 36.1223 22.3025 36.5992 21.9508 36.9508C21.5992 37.3025 21.1223 37.5 20.625 37.5ZM20.6381 48.75L22.9312 45H37.0706L39.3637 48.75H20.6381ZM37.5 35.625C37.5 35.2542 37.61 34.8916 37.816 34.5833C38.022 34.275 38.3149 34.0346 38.6575 33.8927C39.0001 33.7508 39.3771 33.7137 39.7408 33.786C40.1045 33.8584 40.4386 34.037 40.7008 34.2992C40.9631 34.5614 41.1416 34.8955 41.214 35.2592C41.2863 35.6229 41.2492 35.9999 41.1073 36.3425C40.9654 36.6851 40.725 36.978 40.4167 37.184C40.1084 37.39 39.7458 37.5 39.375 37.5C38.8777 37.5 38.4008 37.3025 38.0492 36.9508C37.6975 36.5992 37.5 36.1223 37.5 35.625ZM43.125 24.375C43.125 25.3696 42.7299 26.3234 42.0266 27.0267C41.3234 27.7299 40.3696 28.125 39.375 28.125H20.625C19.6304 28.125 18.6766 27.7299 17.9734 27.0267C17.2701 26.3234 16.875 25.3696 16.875 24.375V13.125C16.875 12.1304 17.2701 11.1766 17.9734 10.4734C18.6766 9.77009 19.6304 9.375 20.625 9.375H39.375C40.3696 9.375 41.3234 9.77009 42.0266 10.4734C42.7299 11.1766 43.125 12.1304 43.125 13.125V24.375Z" fill="white" fill-opacity="0.5"/>
</svg>
