<svg xmlns="http://www.w3.org/2000/svg" width="60" height="60" viewBox="0 0 60 60">
  <path fill="#FFFFFF" fill-opacity="0.5" d="M48.75,35.625V13.125C48.747,10.639 47.758,8.257 46.001,6.499C44.243,4.742 41.861,3.753 39.375,3.75H20.625C18.139,3.753 15.757,4.742 13.999,6.499C12.242,8.257 11.253,10.639 11.25,13.125V35.625C11.254,37.769 11.991,39.848 13.341,41.515C14.69,43.181 16.569,44.336 18.666,44.786L13.401,53.398C13.263,53.608 13.169,53.844 13.125,54.091C13.08,54.338 13.085,54.592 13.141,54.837C13.196,55.082 13.3,55.313 13.446,55.517C13.592,55.721 13.778,55.894 13.993,56.025C14.207,56.155 14.445,56.242 14.694,56.279C14.942,56.316 15.195,56.303 15.438,56.24C15.681,56.177 15.91,56.066 16.109,55.914C16.308,55.761 16.475,55.57 16.599,55.352L18.345,52.5H41.657L43.401,55.352C43.525,55.57 43.692,55.761 43.891,55.914C44.09,56.066 44.319,56.177 44.562,56.24C44.805,56.303 45.058,56.316 45.306,56.279C45.555,56.242 45.793,56.155 46.007,56.025C46.222,55.894 46.408,55.721 46.554,55.517C46.7,55.313 46.804,55.082 46.859,54.837C46.914,54.592 46.92,54.338 46.875,54.091C46.831,53.844 46.737,53.608 46.599,53.398L41.334,44.786C43.431,44.336 45.31,43.181 46.659,41.515C48.009,39.848 48.746,37.769 48.75,35.625Z"/>
</svg>