<svg width="86" height="42" viewBox="0 0 86 42" fill="none" xmlns="http://www.w3.org/2000/svg">
<path fill-rule="evenodd" clip-rule="evenodd" d="M70.3325 27.8766C70.6598 27.8766 70.9839 27.9412 71.2862 28.0666C71.5885 28.192 71.863 28.3758 72.0942 28.6075C72.3254 28.8391 72.5086 29.1141 72.6333 29.4167C72.7581 29.7192 72.8219 30.0434 72.8212 30.3707C72.8213 30.6975 72.7571 31.0211 72.632 31.3231C72.507 31.625 72.3237 31.8994 72.0925 32.1304C71.8614 32.3614 71.587 32.5446 71.285 32.6695C70.983 32.7944 70.6593 32.8586 70.3325 32.8583C70.0051 32.8591 69.6806 32.7955 69.3778 32.6709C69.0749 32.5463 68.7995 32.3633 68.5674 32.1323C68.3353 31.9013 68.151 31.6268 68.025 31.3246C67.899 31.0223 67.8337 30.6982 67.833 30.3707C67.8332 30.0428 67.898 29.7181 68.0237 29.4152C68.1494 29.1123 68.3336 28.8372 68.5658 28.6055C68.7979 28.3739 69.0734 28.1903 69.3766 28.0652C69.6798 27.9401 70.0046 27.8761 70.3325 27.8766ZM61.7873 27.8766C62.4488 27.8766 63.0832 28.1394 63.5509 28.6071C64.0186 29.0749 64.2814 29.7092 64.2814 30.3707C64.2814 31.0322 64.0186 31.6666 63.5509 32.1343C63.0832 32.602 62.4488 32.8648 61.7873 32.8648C61.1258 32.8648 60.4915 32.602 60.0237 32.1343C59.556 31.6666 59.2932 31.0322 59.2932 30.3707C59.2932 29.7092 59.556 29.0749 60.0237 28.6071C60.4915 28.1394 61.1258 27.8766 61.7873 27.8766ZM53.4245 27.8766C53.7519 27.8766 54.0761 27.9412 54.3786 28.0665C54.6811 28.1919 54.9559 28.3756 55.1873 28.6073C55.4187 28.8389 55.6022 29.1138 55.7273 29.4164C55.8524 29.719 55.9167 30.0433 55.9164 30.3707C55.9155 31.0315 55.6528 31.6651 55.1857 32.1326C54.7186 32.6001 54.0853 32.8634 53.4245 32.8648C53.0908 32.8746 52.7585 32.8174 52.4473 32.6965C52.1361 32.5756 51.8523 32.3935 51.6127 32.1609C51.3732 31.9283 51.1828 31.65 51.0528 31.3425C50.9227 31.035 50.8557 30.7046 50.8557 30.3707C50.8557 30.0368 50.9227 29.7064 51.0528 29.3989C51.1828 29.0914 51.3732 28.8131 51.6127 28.5805C51.8523 28.348 52.1361 28.1658 52.4473 28.0449C52.7585 27.924 53.0908 27.8668 53.4245 27.8766ZM58.518 19.0306L48.2148 23.6963H6.85892C4.78287 23.6963 4.12162 23.9004 3.23344 25.591L0.682895 30.4652C-0.322555 32.3936 -0.0977944 32.7899 0.506995 34.3393L2.67859 39.9149C3.23995 41.3514 4.10316 42.0018 6.12275 42.0018H69.7734C71.5942 42.0018 72.895 41.4708 73.7658 40.0788L85.6423 22.4172C86.5522 21.06 85.5685 19.0295 84.0136 19.0295H58.518V19.0306Z" fill="white" fill-opacity="0.5"/>
<path fill-rule="evenodd" clip-rule="evenodd" d="M36.3776 9.19979C38.2278 9.19327 39.3766 9.14224 40.812 10.4778L42.7469 12.5017C43.4082 13.1184 42.9836 13.5604 42.3908 13.5604L24.8019 13.5658C24.3948 13.5658 24.1287 13.3508 24.3437 12.8698L25.7292 9.83172C25.9551 9.34094 26.3514 9.21716 26.8324 9.21065L36.3776 9.19979ZM24.9941 0.0258789C24.259 0.0258789 23.9529 0.512317 24.0386 1.16814L24.6 5.44401H11.4444C9.68003 5.44401 8.7799 8.33984 10.958 9.34529L16.2621 11.8068L12.4054 19.2945C11.8679 20.3271 12.4108 21.1772 13.2425 21.1772H46.9859L53.1793 18.3715C54.542 17.7559 54.6723 15.9958 52.8394 15.1977L47.7688 12.9881L43.368 8.21497C41.0954 5.74912 38.9466 5.44293 35.5199 5.44293H32.6631L28.637 0.755534C28.3199 0.393964 27.7477 0.0258789 27.08 0.0258789H24.9941Z" fill="white" fill-opacity="0.5"/>
</svg>
