<svg xmlns="http://www.w3.org/2000/svg" width="100" height="60" viewBox="0 0 100 60">
  <path fill="#FFFFFF" fill-opacity="0.5" fill-rule="evenodd" d="M77.33,36.88C77.66,36.88 77.98,36.94 78.29,37.07C78.59,37.19 78.86,37.38 79.09,37.61C79.33,37.84 79.51,38.12 79.63,38.42C79.76,38.72 79.82,39.05 79.82,39.37C79.82,39.7 79.76,40.02 79.63,40.32C79.51,40.63 79.32,40.9 79.09,41.13C78.86,41.36 78.59,41.55 78.29,41.67C77.98,41.8 77.66,41.86 77.33,41.86C77.01,41.86 76.68,41.8 76.38,41.67C76.08,41.55 75.8,41.37 75.57,41.13C75.34,40.9 75.15,40.63 75.03,40.33C74.9,40.02 74.83,39.7 74.83,39.37Z"/>
</svg>