<svg width="60" height="60" viewBox="0 0 60 60" fill="none" xmlns="http://www.w3.org/2000/svg">
<path d="M35.9404 38.2936C35.9404 37.1187 35.592 35.9703 34.9393 34.9934C34.2866 34.0165 33.3588 33.2551 32.2734 32.8055C31.1879 32.3559 29.9935 32.2383 28.8412 32.4675C27.6889 32.6967 26.6305 33.2624 25.7997 34.0932C24.9689 34.924 24.4032 35.9824 24.174 37.1347C23.9448 38.287 24.0624 39.4814 24.512 40.5669C24.9616 41.6523 25.723 42.5801 26.6999 43.2328C27.6767 43.8855 28.8252 44.2339 30.0001 44.2339C31.5748 44.2315 33.0843 43.6048 34.1978 42.4914C35.3113 41.3779 35.938 39.8683 35.9404 38.2936Z" fill="white" fill-opacity="0.5"/>
<path d="M17.4895 55.6126C17.4594 55.7407 17.455 55.8734 17.4765 56.0032C17.498 56.1329 17.545 56.2572 17.6147 56.3687C17.6844 56.4803 17.7755 56.5769 17.8828 56.6531C17.99 56.7293 18.1112 56.7835 18.2395 56.8126C18.2395 56.8126 41.4707 56.8327 41.5407 56.8327C41.6144 56.831 41.6879 56.8243 41.7607 56.8126C41.8889 56.7835 42.0102 56.7293 42.1174 56.6531C42.2247 56.5769 42.3157 56.4803 42.3855 56.3687C42.4552 56.2572 42.5021 56.1329 42.5236 56.0032C42.5451 55.8734 42.5407 55.7407 42.5107 55.6126C41.8574 52.7839 40.2648 50.2602 37.9927 48.4531C35.7206 46.6459 32.9032 45.6621 30.0001 45.6621C27.097 45.6621 24.2795 46.6459 22.0075 48.4531C19.7354 50.2602 18.1428 52.7839 17.4895 55.6126Z" fill="white" fill-opacity="0.5"/>
<path d="M48.931 35.8116C48.929 34.8962 48.6558 34.002 48.1458 33.2419C47.6358 32.4818 46.912 31.8899 46.0657 31.5409C45.2195 31.192 44.2888 31.1018 43.3913 31.2815C42.4938 31.4613 41.6697 31.9031 41.0232 32.551C40.3766 33.199 39.9366 34.024 39.7588 34.9219C39.5809 35.8198 39.6732 36.7503 40.0239 37.5958C40.3747 38.4413 40.9682 39.1638 41.7294 39.6722C42.4906 40.1805 43.3854 40.4518 44.3008 40.4518C44.9095 40.4515 45.5123 40.3311 46.0746 40.0977C46.6368 39.8642 47.1476 39.5223 47.5776 39.0913C48.0076 38.6604 48.3485 38.1489 48.5807 37.5861C48.8129 37.0234 48.9319 36.4204 48.931 35.8116Z" fill="white" fill-opacity="0.5"/>
<path d="M53.7513 48.8122C53.3352 46.9943 52.4029 45.3353 51.0664 44.0347C49.7299 42.7341 48.0462 41.8472 46.2177 41.4806C44.3892 41.1141 42.4938 41.2835 40.7593 41.9685C39.0248 42.6535 37.525 43.825 36.4404 45.342C37.0463 45.6306 37.6311 45.9614 38.1905 46.3321C38.9489 46.8311 39.6587 47.4003 40.3106 48.0322C40.9449 48.6468 41.5238 49.3161 42.0407 50.0323H52.7812C52.9315 50.0316 53.0796 49.997 53.2146 49.9313C53.3497 49.8655 53.4682 49.7701 53.5613 49.6522C53.6551 49.5361 53.721 49.3999 53.7539 49.2543C53.7868 49.1087 53.7859 48.9574 53.7513 48.8122Z" fill="white" fill-opacity="0.5"/>
<path d="M11.0691 35.8116C11.0691 36.7274 11.3407 37.6226 11.8494 38.384C12.3582 39.1455 13.0813 39.739 13.9274 40.0894C14.7735 40.4399 15.7045 40.5315 16.6026 40.3529C17.5008 40.1742 18.3258 39.7332 18.9734 39.0857C19.6209 38.4381 20.0619 37.6131 20.2406 36.7149C20.4192 35.8168 20.3275 34.8858 19.9771 34.0397C19.6266 33.1936 19.0332 32.4705 18.2717 31.9617C17.5103 31.453 16.6151 31.1814 15.6993 31.1814C14.4717 31.1827 13.2947 31.6709 12.4267 32.539C11.5586 33.407 11.0704 34.584 11.0691 35.8116Z" fill="white" fill-opacity="0.5"/>
<path d="M6.24896 48.8122C6.2143 48.9574 6.21341 49.1087 6.24635 49.2543C6.27929 49.3999 6.34518 49.5361 6.43897 49.6522C6.5321 49.7701 6.65058 49.8655 6.78563 49.9313C6.92067 49.997 7.06879 50.0316 7.21901 50.0323H17.9595C18.4764 49.3161 19.0554 48.6468 19.6896 48.0322C20.3415 47.4003 21.0513 46.8311 21.8097 46.3321C22.3692 45.9614 22.954 45.6306 23.5598 45.342C22.4752 43.825 20.9755 42.6535 19.241 41.9685C17.5065 41.2835 15.611 41.1141 13.7825 41.4806C11.954 41.8472 10.2703 42.7341 8.93384 44.0347C7.59738 45.3353 6.66505 46.9943 6.24896 48.8122Z" fill="white" fill-opacity="0.5"/>
<path d="M3.61897 24.9647L27.9727 5.70985C28.5491 5.25154 29.2638 5.00208 30.0002 5.00217C30.7367 5.00225 31.4513 5.25189 32.0276 5.71034L56.3813 24.9647C56.5895 25.1285 56.8542 25.2031 57.1173 25.172C57.3803 25.1409 57.6203 25.0067 57.7846 24.7989C57.9489 24.591 58.0239 24.3265 57.9934 24.0634C57.9628 23.8003 57.8292 23.56 57.6217 23.3953L33.2679 4.14141C32.3391 3.40244 31.1872 3.00009 30.0002 3C28.8133 2.99991 27.6614 3.40209 26.7324 4.14092L2.37867 23.3953C2.17117 23.56 2.03747 23.8003 2.00692 24.0634C1.97637 24.3265 2.05146 24.591 2.21572 24.7989C2.37997 25.0067 2.61997 25.1409 2.88305 25.172C3.14613 25.2031 3.4108 25.1285 3.61897 24.9647Z" fill="white" fill-opacity="0.5"/>
<path d="M29.2101 8.68024L9.43909 24.311V33.6515C9.94924 32.1686 10.9688 30.9148 12.3165 30.1129C13.6642 29.3111 15.2526 29.0133 16.7992 29.2725C18.3458 29.5316 19.7503 30.331 20.763 31.5283C21.7757 32.7257 22.3308 34.2434 22.3297 35.8116C22.3314 35.8917 22.3281 35.9719 22.3197 36.0516C22.7639 34.3529 23.7587 32.8494 25.1484 31.7764C26.5381 30.7033 28.2443 30.1213 30.0001 30.1213C31.7559 30.1213 33.4621 30.7033 34.8518 31.7764C36.2415 32.8494 37.2363 34.3529 37.6805 36.0516C37.6722 35.9719 37.6688 35.8917 37.6705 35.8116C37.6694 34.2434 38.2245 32.7257 39.2372 31.5283C40.2499 30.331 41.6544 29.5316 43.201 29.2725C44.7476 29.0133 46.336 29.3111 47.6837 30.1129C49.0314 30.9148 50.051 32.1686 50.5611 33.6515V24.311L30.7901 8.68024C30.566 8.5006 30.2873 8.40271 30.0001 8.40271C29.7129 8.40271 29.4342 8.5006 29.2101 8.68024Z" fill="white" fill-opacity="0.5"/>
</svg>
