<svg xmlns="http://www.w3.org/2000/svg" width="60" height="60" viewBox="0 0 60 60">
  <path fill="#FFFFFF" fill-opacity="0.5" d="M30.62,12.732C30.454,12.573 30.233,12.484 30.003,12.484C29.773,12.484 29.552,12.573 29.386,12.732L8.839,32.36C8.752,32.444 8.683,32.544 8.635,32.655C8.588,32.766 8.563,32.886 8.564,33.007L8.56,51.429C8.56,52.376 8.936,53.284 9.606,53.954C10.276,54.624 11.184,55 12.132,55H22.857C23.331,55 23.785,54.812 24.12,54.477C24.455,54.142 24.643,53.688 24.643,53.214V38.036C24.643,37.799 24.737,37.572 24.904,37.404C25.072,37.237 25.299,37.143 25.536,37.143H34.464C34.701,37.143 34.928,37.237 35.096,37.404C35.263,37.572 35.357,37.799 35.357,38.036V53.214C35.357,53.688 35.545,54.142 35.88,54.477C36.215,54.812 36.669,55 37.143,55H47.864C48.811,55 49.719,54.624 50.389,53.954C51.059,53.284 51.435,52.376 51.435,51.429V33.007C51.435,32.886 51.411,32.766 51.364,32.655C51.316,32.544 51.247,32.444 51.16,32.36L30.62,12.732Z"/>
</svg>