<svg width="60" height="60" viewBox="0 0 60 60" fill="none" xmlns="http://www.w3.org/2000/svg">
<path d="M43.5002 38.0395C42.3803 38.0395 41.4802 38.9395 41.4802 40.0595V44.0795C41.4802 44.8596 40.8403 45.4996 40.0403 45.4996H32.3602V14.4796H40.0403C40.8403 14.4796 41.4802 15.1196 41.4802 15.8996V20.1795C41.4802 21.2995 42.3803 22.1995 43.5002 22.1995C44.6202 22.1995 45.5403 21.2995 45.5403 20.1795V15.8996C45.5403 12.8796 43.0803 10.4195 40.0403 10.4195H32.2803C31.8959 7.8988 29.3316 5.77285 26.3403 6.41951L9.86023 10.0996C7.58032 10.6196 6.00024 12.5996 6.00024 14.9195V45.0795C6.00024 47.4195 7.58032 49.3796 9.86023 49.8996L26.3403 53.5795C29.1864 54.2117 31.8806 52.2249 32.2803 49.5595H40.0403C43.0803 49.5595 45.5403 47.0996 45.5403 44.0795V40.0595C45.5403 38.9395 44.6202 38.0395 43.5002 38.0395ZM21.4203 29.9996C21.4203 28.5395 22.6202 27.3396 24.0803 27.3396C24.4003 27.3396 24.6803 27.3996 24.9603 27.4996C26.0002 27.8596 26.7402 28.8396 26.7402 29.9996C26.7402 31.1595 26.0002 32.1396 24.9603 32.4996C24.6803 32.5996 24.4003 32.6595 24.0803 32.6595C22.6202 32.6595 21.4203 31.4596 21.4203 29.9996Z" fill="white" fill-opacity="0.5"/>
<path d="M53.1658 28.3425L48.4064 24.7629C47.7758 24.3154 46.9623 24.2341 46.2706 24.5798C45.5792 24.9255 45.152 25.6171 45.152 26.39V27.9561H39.5587C38.4401 27.9561 37.5247 28.8714 37.5247 29.9901C37.5247 31.1088 38.4401 32.024 39.5587 32.024H45.152V33.5698C45.152 34.3427 45.5792 35.0546 46.2706 35.4003C46.9623 35.7462 47.7961 35.6648 48.4064 35.1969L53.1862 31.5969C53.6946 31.2104 53.9998 30.6206 53.9998 29.9698C53.9998 29.3393 53.6946 28.729 53.1658 28.3425Z" fill="white" fill-opacity="0.5"/>
</svg>
