<svg width="60" height="60" viewBox="0 0 60 60" fill="none" xmlns="http://www.w3.org/2000/svg">
<path d="M32.1811 8.58296L8.90886 5.04659C7.8289 4.87718 6.72775 5.17365 5.90189 5.87245C5.07603 6.59243 4.58899 7.63005 4.58899 8.71001V53.3276C4.58899 54.4922 5.5419 55.4451 6.70658 55.4451H13.5887V44.3278C13.5887 42.2738 15.2404 40.622 17.2945 40.622H22.5885C24.6425 40.622 26.2942 42.2738 26.2942 44.3278V55.4451H35.294V12.2464C35.294 10.4253 33.9811 8.87942 32.1811 8.58296ZM16.2357 35.8575H13.0593C12.1827 35.8575 11.4711 35.146 11.4711 34.2693C11.4711 33.3926 12.1827 32.6811 13.0593 32.6811H16.2357C17.1124 32.6811 17.8239 33.3926 17.8239 34.2693C17.8239 35.146 17.1124 35.8575 16.2357 35.8575ZM16.2357 29.5047H13.0593C12.1827 29.5047 11.4711 28.7932 11.4711 27.9165C11.4711 27.0398 12.1827 26.3283 13.0593 26.3283H16.2357C17.1124 26.3283 17.8239 27.0398 17.8239 27.9165C17.8239 28.7932 17.1124 29.5047 16.2357 29.5047ZM16.2357 23.152H13.0593C12.1827 23.152 11.4711 22.4404 11.4711 21.5638C11.4711 20.6871 12.1827 19.9756 13.0593 19.9756H16.2357C17.1124 19.9756 17.8239 20.6871 17.8239 21.5638C17.8239 22.4404 17.1124 23.152 16.2357 23.152ZM16.2357 16.7992H13.0593C12.1827 16.7992 11.4711 16.0877 11.4711 15.211C11.4711 14.3343 12.1827 13.6228 13.0593 13.6228H16.2357C17.1124 13.6228 17.8239 14.3343 17.8239 15.211C17.8239 16.0877 17.1124 16.7992 16.2357 16.7992ZM26.8236 35.8575H23.6473C22.7706 35.8575 22.0591 35.146 22.0591 34.2693C22.0591 33.3926 22.7706 32.6811 23.6473 32.6811H26.8236C27.7003 32.6811 28.4118 33.3926 28.4118 34.2693C28.4118 35.146 27.7003 35.8575 26.8236 35.8575ZM26.8236 29.5047H23.6473C22.7706 29.5047 22.0591 28.7932 22.0591 27.9165C22.0591 27.0398 22.7706 26.3283 23.6473 26.3283H26.8236C27.7003 26.3283 28.4118 27.0398 28.4118 27.9165C28.4118 28.7932 27.7003 29.5047 26.8236 29.5047ZM26.8236 23.152H23.6473C22.7706 23.152 22.0591 22.4404 22.0591 21.5638C22.0591 20.6871 22.7706 19.9756 23.6473 19.9756H26.8236C27.7003 19.9756 28.4118 20.6871 28.4118 21.5638C28.4118 22.4404 27.7003 23.152 26.8236 23.152ZM26.8236 16.7992H23.6473C22.7706 16.7992 22.0591 16.0877 22.0591 15.211C22.0591 14.3343 22.7706 13.6228 23.6473 13.6228H26.8236C27.7003 13.6228 28.4118 14.3343 28.4118 15.211C28.4118 16.0877 27.7003 16.7992 26.8236 16.7992Z" fill="white" fill-opacity="0.5"/>
<path d="M52.4888 27.582L37.4116 24.4247V55.4452H51.7053C53.7487 55.4452 55.411 53.7829 55.411 51.7394V31.2031C55.411 29.454 54.2188 27.9653 52.4888 27.582ZM47.4701 49.0924H44.2937C43.417 49.0924 42.7055 48.3809 42.7055 47.5043C42.7055 46.6276 43.417 45.9161 44.2937 45.9161H47.4701C48.3468 45.9161 49.0583 46.6276 49.0583 47.5043C49.0583 48.3809 48.3468 49.0924 47.4701 49.0924ZM47.4701 42.7397H44.2937C43.417 42.7397 42.7055 42.0282 42.7055 41.1515C42.7055 40.2748 43.417 39.5633 44.2937 39.5633H47.4701C48.3468 39.5633 49.0583 40.2748 49.0583 41.1515C49.0583 42.0282 48.3468 42.7397 47.4701 42.7397ZM47.4701 36.3869H44.2937C43.417 36.3869 42.7055 35.6754 42.7055 34.7987C42.7055 33.9221 43.417 33.2105 44.2937 33.2105H47.4701C48.3468 33.2105 49.0583 33.9221 49.0583 34.7987C49.0583 35.6754 48.3468 36.3869 47.4701 36.3869Z" fill="white" fill-opacity="0.5"/>
</svg>
