<svg width="60" height="60" viewBox="0 0 60 60" fill="none" xmlns="http://www.w3.org/2000/svg">
<path d="M40.7143 24.6428C46.1385 24.6428 50.5357 20.2456 50.5357 14.8214C50.5357 9.39719 46.1385 5 40.7143 5C35.2901 5 30.8929 9.39719 30.8929 14.8214C30.8929 20.2456 35.2901 24.6428 40.7143 24.6428Z" fill="white" fill-opacity="0.5"/>
<path d="M19.2857 24.6428C24.71 24.6428 29.1071 20.2456 29.1071 14.8214C29.1071 9.39719 24.71 5 19.2857 5C13.8615 5 9.46436 9.39719 9.46436 14.8214C9.46436 20.2456 13.8615 24.6428 19.2857 24.6428Z" fill="white" fill-opacity="0.5"/>
<path d="M12.4044 32.0473C12.9069 31.545 13.1891 30.8636 13.1891 30.1531C13.1891 29.4427 12.9069 28.7612 12.4044 28.2589L9.31067 25.166C8.61331 24.4689 7.48303 24.4689 6.78567 25.166L5.52317 26.4286C4.8261 27.126 4.8261 28.2562 5.52317 28.9536L8.61604 32.0473C9.11838 32.5497 9.79973 32.832 10.5102 32.832C11.2207 32.832 11.9021 32.5497 12.4044 32.0473Z" fill="white" fill-opacity="0.5"/>
<path d="M22.8571 26.4286H15.7143C14.9246 26.43 14.1375 26.5198 13.3679 26.6965L13.667 26.9956C15.3974 28.7412 15.3912 31.5572 13.6532 33.2952C11.9152 35.0332 9.09922 35.0393 7.35362 33.309L6.22862 32.184C5.42022 33.7118 4.99844 35.4143 5 37.1429V52.3215C5 53.8008 6.19922 55 7.67862 55C9.15801 55 10.3572 53.8008 10.3572 52.3214V38.0357C10.3572 37.5427 10.7569 37.1429 11.2501 37.1429C11.7433 37.1429 12.143 37.5426 12.143 38.0357V52.3215C12.1382 53.2902 11.8168 54.2309 11.2278 55.0001H27.3448C26.7539 54.2319 26.432 53.2907 26.4287 52.3215V38.0357C26.4287 37.5427 26.8284 37.1429 27.3216 37.1429C27.8148 37.1429 28.2145 37.5426 28.2145 38.0357V52.3215C28.2145 53.8008 29.4137 55.0001 30.8931 55.0001C32.3724 55.0001 33.5717 53.8009 33.5717 52.3215V37.1429C33.5651 31.2282 28.7719 26.4349 22.8571 26.4286Z" fill="white" fill-opacity="0.5"/>
<path d="M44.2857 26.4286H29.2625C33.0373 28.6793 35.3517 32.748 35.3571 37.1429V52.3215C35.3523 53.2902 35.0309 54.2309 34.4419 55.0001H48.7732C48.1823 54.2319 47.8604 53.2907 47.8571 52.3215V38.0357C47.8571 37.5427 48.2568 37.1429 48.75 37.1429C49.243 37.1429 49.6428 37.5426 49.6428 38.0357V52.3215C49.6428 53.8008 50.842 55.0001 52.3214 55.0001C53.8008 55.0001 55 53.8008 55 52.3214V37.1429C54.9936 31.2282 50.2004 26.4349 44.2857 26.4286Z" fill="white" fill-opacity="0.5"/>
</svg>
