<svg width="60" height="60" viewBox="0 0 60 60" fill="none" xmlns="http://www.w3.org/2000/svg">
<path d="M30.6204 12.732C30.4543 12.5731 30.2332 12.4844 30.0033 12.4844C29.7733 12.4844 29.5522 12.5731 29.3861 12.732L8.8392 32.3604C8.75194 32.4439 8.68252 32.5442 8.63513 32.6552C8.58775 32.7663 8.56339 32.8858 8.56353 33.0066L8.56018 51.4285C8.56018 52.3757 8.93645 53.2841 9.60623 53.9538C10.276 54.6236 11.1844 54.9999 12.1316 54.9999H22.8571C23.3307 54.9999 23.7849 54.8118 24.1197 54.4769C24.4546 54.142 24.6428 53.6878 24.6428 53.2142V38.0356C24.6428 37.7988 24.7368 37.5717 24.9043 37.4043C25.0717 37.2368 25.2988 37.1428 25.5356 37.1428H34.4642C34.701 37.1428 34.9281 37.2368 35.0955 37.4043C35.263 37.5717 35.3571 37.7988 35.3571 38.0356V53.2142C35.3571 53.6878 35.5452 54.142 35.8801 54.4769C36.215 54.8118 36.6692 54.9999 37.1428 54.9999H47.8638C48.811 54.9999 49.7194 54.6236 50.3891 53.9538C51.0589 53.2841 51.4352 52.3757 51.4352 51.4285V33.0066C51.4353 32.8858 51.411 32.7663 51.3636 32.6552C51.3162 32.5442 51.2468 32.4439 51.1595 32.3604L30.6204 12.732Z" fill="white" fill-opacity="0.5"/>
<path d="M56.2176 28.6775L47.8694 20.6908V8.57143C47.8694 8.09783 47.6813 7.64362 47.3464 7.30874C47.0115 6.97385 46.5573 6.78571 46.0837 6.78571H40.7266C40.2529 6.78571 39.7987 6.97385 39.4639 7.30874C39.129 7.64362 38.9408 8.09783 38.9408 8.57143V12.1429L32.4766 5.96205C31.8716 5.35045 30.9721 5 30 5C29.0312 5 28.1339 5.35045 27.529 5.96317L3.79017 28.6752C3.09597 29.3449 3.00892 30.4464 3.64061 31.1719C3.79924 31.355 3.99347 31.5039 4.21148 31.6096C4.42949 31.7152 4.66673 31.7754 4.90874 31.7865C5.15076 31.7976 5.39249 31.7593 5.61923 31.6739C5.84598 31.5886 6.05299 31.458 6.22767 31.2902L29.3862 9.16071C29.5523 9.00176 29.7734 8.91305 30.0033 8.91305C30.2333 8.91305 30.4544 9.00176 30.6205 9.16071L53.7812 31.2902C54.1224 31.6174 54.5794 31.7959 55.052 31.7867C55.5246 31.7775 55.9743 31.5813 56.3024 31.2411C56.9877 30.5312 56.9308 29.3594 56.2176 28.6775Z" fill="white" fill-opacity="0.5"/>
</svg>
