<svg width="60" height="60" viewBox="0 0 60 60" fill="none" xmlns="http://www.w3.org/2000/svg">
<path d="M49.7419 18.7794C50.5121 17.8509 50.9757 16.6595 50.9757 15.3617C50.9757 12.4054 48.5707 10.0002 45.6144 10.0002C42.6581 10.0002 40.253 12.4054 40.253 15.3617C40.253 15.6686 40.2798 15.9693 40.3296 16.2622C43.6636 17.3316 46.0841 20.4603 46.0841 24.1448C46.0841 24.9796 45.9565 25.8054 45.7117 26.5937C46.6404 27.3869 47.4496 28.3187 48.1088 29.3613C48.716 30.3216 49.1811 31.3557 49.4971 32.4339H49.518C52.4742 32.4339 54.8794 30.0288 54.8794 27.0725C54.8794 23.446 52.7846 20.2999 49.7419 18.7794Z" fill="white" fill-opacity="0.5"/>
<path d="M14.2882 26.5935C14.0434 25.8053 13.9158 24.9795 13.9158 24.1447C13.9158 20.4602 16.3364 17.3315 19.6704 16.2621C19.7201 15.9691 19.7469 15.6685 19.7469 15.3615C19.7469 12.4053 17.3418 10.0001 14.3855 10.0001C11.4292 10.0001 9.02409 12.4053 9.02409 15.3615C9.02409 16.6594 9.48786 17.8508 10.2581 18.7793C7.21528 20.2998 5.12054 23.4459 5.12054 27.0724C5.12054 30.0287 7.52569 32.4338 10.482 32.4338H10.503C10.8189 31.3556 11.284 30.3215 11.8913 29.3612C12.5504 28.3186 13.3596 27.3868 14.2882 26.5935Z" fill="white" fill-opacity="0.5"/>
<path d="M30 21.3944C30.8588 18.9638 32.8228 17.0513 35.2849 16.2617C35.3347 15.9689 35.3614 15.6684 35.3614 15.3617C35.3614 12.4054 32.9563 10.0002 30 10.0002C27.0437 10.0002 24.6385 12.4054 24.6385 15.3617C24.6385 15.6684 24.6653 15.969 24.715 16.2617C27.1771 17.0514 29.1411 18.9639 30 21.3944Z" fill="white" fill-opacity="0.5"/>
<path d="M22.0953 35.3767C21.8505 34.5885 21.7229 33.7627 21.7229 32.9279C21.7229 29.2434 24.1435 26.1147 27.4774 25.0453C27.5272 24.7524 27.554 24.4517 27.554 24.1447C27.554 21.1885 25.1489 18.7833 22.1926 18.7833C19.2363 18.7833 16.8312 21.1885 16.8312 24.1447C16.8312 25.4426 17.295 26.634 18.0652 27.5625C15.0224 29.083 12.9277 32.229 12.9277 35.8556C12.9277 38.8119 15.3328 41.217 18.2891 41.217H18.3101C18.6261 40.1388 19.0912 39.1047 19.6984 38.1444C20.3574 37.1018 21.1667 36.17 22.0953 35.3767Z" fill="white" fill-opacity="0.5"/>
<path d="M41.9346 27.5625C42.7048 26.634 43.1685 25.4426 43.1685 24.1447C43.1685 21.1885 40.7634 18.7833 37.8071 18.7833C34.8508 18.7833 32.4458 21.1885 32.4458 24.1447C32.4458 24.4517 32.4726 24.7524 32.5224 25.0453C35.8563 26.1147 38.2769 29.2434 38.2769 32.9279C38.2769 33.7628 38.1494 34.5884 37.9045 35.3768C38.8332 36.17 39.6423 37.1018 40.3016 38.1444C40.9087 39.1047 41.3738 40.1388 41.6897 41.217H41.7107C44.667 41.217 47.0722 38.8119 47.0722 35.8556C47.0722 32.2291 44.9774 29.083 41.9346 27.5625Z" fill="white" fill-opacity="0.5"/>
<path d="M34.1275 36.3455C34.8976 35.417 35.3614 34.2256 35.3614 32.9278C35.3614 29.9715 32.9563 27.5664 30 27.5664C27.0437 27.5664 24.6386 29.9715 24.6386 32.9278C24.6386 34.2256 25.1023 35.417 25.8725 36.3455C22.8298 37.8661 20.7349 41.0121 20.7349 44.6387C20.7349 47.5949 23.1401 50.0001 26.0963 50.0001H33.9035C36.8598 50.0001 39.2649 47.5949 39.2649 44.6387C39.265 41.0122 37.1702 37.8662 34.1275 36.3455Z" fill="white" fill-opacity="0.5"/>
</svg>
